Coordinates
version=1
nRows=13
nColumns=27
inDegrees=yes

Units are S.I. units (second, meters, Newtons, ...)
If the header above contains a line with 'inDegrees', this indicates whether rotational values are in degrees (yes) or radians (no).

endheader
time	pelvis_rotation	pelvis_tilt	pelvis_list	pelvis_tx	pelvis_ty	pelvis_tz	hip_flexion_r	hip_adduction_r	hip_rotation_r	knee_angle_r	knee_rotation_r	knee_adduction_r	knee_angle_r_beta	ankle_angle_r	subtalar_angle_r	mtp_angle_r	hip_flexion_l	hip_adduction_l	hip_rotation_l	knee_angle_l	knee_rotation_l	knee_adduction_l	knee_angle_l_beta	ankle_angle_l	subtalar_angle_l	mtp_angle_l
      3.60000000	      4.76164447	    -19.76048794	      3.35010453	      0.05316702	      0.83138977	     -1.15282264	     30.70972821	    -29.83004396	    -35.16900940	     19.36474715	      0.00000000	      4.97926494	      0.33797860	     -5.54857566	      0.00000000	      0.00000000	     30.15730787	    -18.13133694	    -11.50275680	      6.89422164	      0.00000000	      7.27637370	      0.12032687	    -14.76917128	      0.00000000	      0.00000000
      3.60500000	      4.76413790	    -20.28122038	      4.02074066	      0.05147428	      0.83077512	     -1.15352197	     32.13889580	    -30.80511115	    -34.60349824	     20.42544288	      0.00000000	      5.20630305	      0.35649123	     -5.22228982	      0.00000000	      0.00000000	     30.85626384	    -17.55204728	    -11.86201506	      7.24544875	      0.00000000	      7.17912513	      0.12645694	    -14.65862739	      0.00000000	      0.00000000
      3.61000000	      4.20872102	    -21.70311381	      4.39298712	      0.04777461	      0.82957545	     -1.15345290	     35.12153638	    -31.20138086	    -32.20649206	     21.70572189	      0.00000000	      4.28325582	      0.37883631	     -4.83318052	      0.00000000	      0.00000000	     33.11126084	    -17.61446403	    -13.37078150	      8.89167393	      0.00000000	      5.94910694	      0.15518899	    -13.94679599	      0.00000000	      0.00000000
      3.61500000	      4.90997736	    -21.36108707	      4.27269918	      0.04816614	      0.83003952	     -1.15374051	     34.18031339	    -31.38639102	    -34.01159170	     21.59465527	      0.00000000	      5.29267578	      0.37689784	     -5.05800261	      0.00000000	      0.00000000	     32.73915015	    -17.43781803	    -11.81605430	      8.26140204	      0.00000000	      6.91128475	      0.14418867	    -14.35395972	      0.00000000	      0.00000000
      3.62000000	      4.21035069	    -23.06080623	      5.21011997	      0.04365668	      0.82833436	     -1.15421337	     38.19816072	    -32.36059996	    -30.80705390	     23.47020851	      0.00000000	      4.38143422	      0.40963241	     -4.49147470	      0.00000000	      0.00000000	     35.14969066	    -17.08286056	    -13.80526853	      9.95252160	      0.00000000	      5.70987748	      0.17370427	    -13.63964789	      0.00000000	      0.00000000
      3.62500000	      4.49179693	    -22.69313972	      5.57311098	      0.04374578	      0.82857610	     -1.15486812	     37.90066268	    -32.98004988	    -31.53692238	     23.71485000	      0.00000000	      5.28172080	      0.41390221	     -4.61618484	      0.00000000	      0.00000000	     34.40033287	    -16.53489712	    -13.13870625	      9.15806535	      0.00000000	      6.56577061	      0.15983839	    -14.10875504	      0.00000000	      0.00000000
      3.63000000	      4.53677183	    -23.43117604	      5.81592844	      0.04154181	      0.82797562	     -1.15508255	     39.39083999	    -33.35922027	    -30.92102036	     24.47102172	      0.00000000	      5.30293815	      0.42709990	     -4.47994617	      0.00000000	      0.00000000	     35.60969259	    -16.43736222	    -13.25838379	      9.81642497	      0.00000000	      6.37606667	      0.17132894	    -13.90285048	      0.00000000	      0.00000000
      3.63500000	      4.51167799	    -24.26798998	      6.03829526	      0.03906178	      0.82729381	     -1.15521091	     41.07606055	    -33.65322645	    -30.03940637	     25.23989417	      0.00000000	      5.18072415	      0.44051926	     -4.38057547	      0.00000000	      0.00000000	     36.95179411	    -16.40644130	    -13.45869329	     10.55851505	      0.00000000	      6.16069485	      0.18428085	    -13.67619717	      0.00000000	      0.00000000
      3.64000000	      4.47398420	    -24.95771316	      6.29408737	      0.03681065	      0.82665977	     -1.15540310	     42.58025447	    -33.95992972	    -29.17935711	     25.93465865	      0.00000000	      5.11286414	      0.45264518	     -4.33861301	      0.00000000	      0.00000000	     38.04926178	    -16.33208036	    -13.73747506	     11.16809925	      0.00000000	      5.93230830	      0.19492010	    -13.51009496	      0.00000000	      0.00000000
      3.64500000	      4.46091142	    -26.82462682	      6.19069125	      0.03227501	      0.82522574	     -1.15505048	     45.59075538	    -33.81465844	    -27.52290904	     26.98192183	      0.00000000	      4.16898472	      0.47092337	     -4.18660026	      0.00000000	      0.00000000	     41.30460239	    -16.87597091	    -14.12890749	     13.15354844	      0.00000000	      4.97209180	      0.22957273	    -12.78894130	      0.00000000	      0.00000000
      3.65000000	      4.78504789	    -26.50513719	      6.30531399	      0.03215152	      0.82542720	     -1.15539872	     45.15856183	    -34.18781668	    -28.35784041	     27.06297665	      0.00000000	      4.94800189	      0.47233805	     -4.35489810	      0.00000000	      0.00000000	     40.90468714	    -16.57942174	    -13.53146765	     12.74189074	      0.00000000	      5.43556136	      0.22238795	    -13.06519286	      0.00000000	      0.00000000
      3.65500000	      4.69661204	    -27.33396796	      6.69418113	      0.02949927	      0.82453253	     -1.15564440	     47.07203591	    -34.56116083	    -27.16765668	     27.92114696	      0.00000000	      4.85281981	      0.48731595	     -4.25652995	      0.00000000	      0.00000000	     42.16069916	    -16.46962885	    -14.00765686	     13.45066537	      0.00000000	      5.14673491	      0.23475840	    -12.87879650	      0.00000000	      0.00000000
      3.66000000	      4.52863139	    -28.13594154	      6.95390308	      0.02686351	      0.82367264	     -1.15569749	     48.89844542	    -34.73123276	    -25.90224881	     28.66651174	      0.00000000	      4.64016853	      0.50032501	     -4.22767598	      0.00000000	      0.00000000	     43.37824686	    -16.50969313	    -14.52225503	     14.15739693	      0.00000000	      4.82180108	      0.24709319	    -12.69600734	      0.00000000	      0.00000000
